<svg width="122" height="114" viewBox="0 0 122 114" fill="none" xmlns="http://www.w3.org/2000/svg">
<path d="M89.6821 20.9396C89.6888 21.0035 89.7198 21.0573 89.737 21.1172C89.754 21.1768 89.7645 21.2365 89.7909 21.2918C89.828 21.3696 89.8807 21.4346 89.9341 21.5013C89.97 21.5462 89.9983 21.5942 90.0406 21.6334C90.1076 21.6953 90.1872 21.7388 90.2675 21.7842C90.3141 21.8106 90.3536 21.8447 90.4041 21.8649C90.512 21.9079 90.6296 21.9259 90.7497 21.9364C90.7809 21.9391 90.8075 21.9545 90.8393 21.9548C90.9283 21.9556 99.8862 22.1138 109.326 26.1579C109.482 26.2241 109.646 26.2558 109.806 26.2558C110.257 26.2558 110.687 26.0063 110.882 25.5863C111.147 25.0168 110.881 24.3481 110.287 24.0935C102.113 20.592 94.4797 19.8785 91.8415 19.733C91.4459 18.1041 90.2467 14.773 86.7504 12.1693C82.488 8.99546 76.3216 7.97799 68.4105 9.14408C67.7678 9.23898 67.3269 9.81577 67.4258 10.433C67.5247 11.0495 68.1198 11.4667 68.7694 11.3777C75.9842 10.3116 81.5364 11.1717 85.268 13.9269C89.1737 16.8123 89.6752 20.877 89.6821 20.9396Z" fill="url(#paint0_linear_34_92)"/>
<path d="M59.7585 18.8709C59.2716 19.2851 59.2271 19.9995 59.6589 20.4659C59.892 20.7182 60.2156 20.8463 60.5408 20.8463C60.8184 20.8463 61.0975 20.7521 61.3222 20.5615C68.8798 14.1271 76.5003 15.3153 81.5647 17.4495C82.1637 17.7026 82.8554 17.44 83.1169 16.8683C83.3776 16.2967 83.1069 15.6301 82.5111 15.3793C77.85 13.4171 68.695 11.2623 59.7585 18.8709Z" fill="url(#paint1_linear_34_92)"/>
<path d="M109.479 48.1555C109.655 48.5028 110.004 48.7397 110.403 48.7846C110.448 48.7897 110.494 48.7919 110.539 48.7919C110.891 48.7919 111.228 48.6404 111.453 48.3748C111.512 48.3049 112.895 46.6393 112.459 44.3049C112.075 42.2449 110.447 40.3865 107.583 38.7621C107.484 38.7099 105.091 37.4732 102.083 37.4555C102.081 37.4555 102.079 37.4555 102.076 37.4555C101.429 37.4555 100.902 37.9573 100.898 38.5789C100.895 39.2028 101.418 39.7119 102.069 39.7156C104.451 39.7296 106.417 40.7264 106.419 40.7264C108.58 41.9528 109.865 43.3161 110.134 44.6691C110.187 44.9354 110.198 45.1863 110.182 45.418C108.33 43.706 104.415 41.5335 97.0203 42.7908L96.6897 41.4114C96.7703 41.3827 96.8515 41.3555 96.9282 41.3304C97.2503 41.2238 97.5831 41.1134 97.8991 40.9324C98.4582 40.6131 98.6422 39.9201 98.3094 39.3838C97.9766 38.846 97.2526 38.6716 96.6951 38.9902C96.5854 39.0527 96.3684 39.1248 96.1583 39.1947C95.6529 39.3624 95.0233 39.5706 94.5195 40.0481C94.2288 40.3233 94.1077 40.7235 94.1989 41.1053L94.9796 44.3645C95.123 44.9663 95.7396 45.3466 96.3776 45.2157C96.8142 45.1247 97.2183 45.0634 97.6279 44.997C97.719 45.8086 98.1062 47.6442 99.7772 49.0391C101.113 50.1537 102.923 50.7143 105.175 50.7143C105.852 50.7143 106.568 50.6635 107.323 50.562C107.967 50.4759 108.417 49.9043 108.326 49.2863C108.237 48.6676 107.638 48.2357 106.997 48.324C104.448 48.6669 102.546 48.3387 101.346 47.3522C100.224 46.431 100.008 45.1415 99.9655 44.718C107.291 44.2586 109.387 47.9818 109.479 48.1555Z" fill="url(#paint2_linear_34_92)"/>
<path d="M120.251 40.5483C119.943 40.5336 119.677 40.5647 119.393 40.5759C119.787 35.4528 119.223 31.6182 117.57 28.4819C117.67 28.348 119.226 26.2096 118.165 23.0092C117.653 21.4651 116.63 19.9623 115.131 18.5015C115.392 17.6262 115.574 16.1539 114.793 14.3551C112.575 9.24644 104.394 4.94185 90.4774 1.56057C74.7194 -2.26867 69.2713 1.97569 67.9449 3.40718C65.8685 3.83848 64.3397 4.56536 63.2629 5.26197C63.0997 5.30906 62.9435 5.38235 62.8092 5.49951C62.6935 5.60039 62.5802 5.7205 62.4649 5.82469C61.7961 6.34961 61.4118 6.77853 61.2714 6.95215C57.5906 10.6857 54.1188 16.1349 50.7048 23.5315C50.4463 23.9612 49.5782 25.6364 50.3942 27.6463C50.419 27.7075 50.4609 27.7639 50.4883 27.8244C48.9294 28.538 47.8692 29.5391 47.3895 30.8452C46.8198 32.3977 47.2062 33.9612 47.6272 35.0072C46.264 35.5676 44.7103 36.4924 44.0414 37.9837C43.707 38.7275 43.4976 39.8545 44.1134 41.2825C43.7685 41.509 43.3739 41.8235 42.9785 42.1785C42.9566 42.194 42.9237 42.2171 42.9148 42.2235C42.8743 42.253 42.8535 42.2953 42.8182 42.3286C42.1144 42.9939 41.4332 43.8392 41.0766 44.9169C40.6797 46.1139 40.7467 47.3572 41.2467 48.6247C39.8354 49.4189 37.6456 51.2187 37.2844 54.854C36.1667 56.8172 34.7979 58.6707 34.0534 59.265C32.9218 58.8501 30.3437 58.1167 28.0013 58.9909C26.4446 59.5743 25.3011 60.7315 24.6041 62.4317C24.5757 62.4994 24.555 62.5693 24.5412 62.6407L23.8978 65.997C22.7108 67.0468 19.0582 70.8416 19.2673 77.4697C18.7057 77.6334 18.0677 77.9445 17.568 78.5605C16.8586 79.4353 16.6584 80.6308 16.969 82.1213C16.0946 82.5969 14.877 83.4415 14.3539 84.5893C13.0733 84.3546 11.1048 84.2341 9.42141 85.1568C8.01418 85.9264 7.09393 87.2344 6.68288 89.0472C5.2772 90.5032 -1.36703 97.7962 0.252612 103.95C1.05783 107.009 3.7005 109.234 8.00728 110.528C8.22968 110.617 11.5273 111.905 15.8432 111.905C18.6226 111.905 21.8249 111.367 24.9001 109.635C24.9025 109.634 24.9048 109.633 24.9072 109.631C24.9275 109.62 24.948 109.611 24.9683 109.6C25.0192 109.571 25.0502 109.525 25.0948 109.49C25.161 109.438 25.2287 109.392 25.2817 109.328C25.3289 109.271 25.3573 109.207 25.3919 109.143C25.4276 109.078 25.4669 109.018 25.4889 108.947C25.5129 108.869 25.5142 108.79 25.5204 108.709C25.5248 108.653 25.5464 108.603 25.542 108.546C25.541 108.534 25.5335 108.524 25.5322 108.512C25.5241 108.436 25.4921 108.365 25.4675 108.291C25.4438 108.22 25.4288 108.148 25.3921 108.084C25.3861 108.073 25.3866 108.062 25.3801 108.051C25.349 108.001 25.3001 107.97 25.2626 107.926C25.2093 107.864 25.1614 107.799 25.0959 107.749C25.0388 107.706 24.9743 107.679 24.9105 107.647C24.8394 107.611 24.7728 107.571 24.6945 107.549C24.6199 107.528 24.5433 107.529 24.4656 107.522C24.4033 107.517 24.3454 107.496 24.2812 107.501C22.7301 107.609 21.3023 107.625 19.9945 107.551C19.9229 107.29 19.7641 107.05 19.5112 106.89C18.9844 106.558 14.456 103.493 17.5511 98.2266C17.8709 97.6829 17.6699 96.9943 17.1032 96.6875C16.5396 96.3836 15.8187 96.5734 15.4989 97.1171C13.0104 101.351 14.3278 104.826 16.1646 106.978C14.123 106.442 12.5532 105.563 11.4897 104.326C9.0326 101.471 10.0886 97.5534 10.1055 97.4909C10.2772 96.8905 9.90991 96.2696 9.28413 96.1033C8.6599 95.9348 8.00805 96.2895 7.83473 96.8905C7.77492 97.0958 6.41985 101.96 9.65454 105.744C11.3615 107.741 13.9862 109.007 17.4738 109.548C12.8221 109.949 8.93731 108.453 8.81404 108.407C5.24115 107.329 3.12994 105.645 2.53791 103.4C1.08621 97.897 8.5418 90.4487 8.61772 90.3737C8.78106 90.2118 8.89073 90.0066 8.93214 89.7844C9.176 88.4712 9.71512 87.6008 10.5809 87.1241C11.8709 86.4135 13.6023 86.714 14.4192 86.9194C13.266 87.5699 11.9207 88.5874 11.1009 90.0779C10.2358 91.6509 10.1147 93.4187 10.742 95.333C10.8999 95.8164 11.3639 96.1246 11.8654 96.1246C11.982 96.1246 12.1009 96.1077 12.2182 96.0724C12.8394 95.8856 13.1845 95.2514 12.9889 94.6562C12.5526 93.3238 12.6147 92.1747 13.1783 91.1432C14.0414 89.5648 15.8707 88.674 16.7583 88.3186L20.4697 90.7463C20.8129 91.1632 22.0898 92.8417 21.8678 94.4796C21.7497 95.3529 21.2122 96.0916 20.2252 96.739C19.6876 97.0906 19.5496 97.794 19.9169 98.309C20.1447 98.6297 20.5143 98.8019 20.8901 98.8019C21.1194 98.8019 21.3502 98.7379 21.5534 98.6047C23.1102 97.585 24.0028 96.2902 24.206 94.7562C24.474 92.7341 23.4253 90.8794 22.7304 89.8962L26.139 85.3319C28.0518 85.5427 34.4439 86.962 39.5781 96.5021C40.0567 97.936 45.0092 112.062 54.6158 113.976C54.6964 113.993 54.7769 114 54.8566 114C55.4027 114 55.8927 113.634 56.0085 113.099C56.1404 112.489 55.7316 111.891 55.0944 111.763C46.5452 110.06 41.8419 95.8775 41.7959 95.734C41.7752 95.6722 41.7499 95.6119 41.7192 95.5545C36.8759 86.4972 30.7966 84.0072 27.6469 83.3126L28.0701 82.7461C28.6492 82.4611 30.0566 81.7196 31.819 80.5261C32.7134 80.8456 34.6193 81.6049 36.8135 82.9652C37.0114 83.088 37.233 83.1461 37.4523 83.1461C37.8381 83.1461 38.2169 82.9637 38.4424 82.6297C38.7951 82.1051 38.6387 81.4055 38.0927 81.0671C36.5099 80.0859 35.0764 79.3981 33.9868 78.936C35.1469 78.021 36.3623 76.9579 37.5489 75.7144C39.5016 76.1907 46.6936 78.8385 55.9793 92.8957C56.4993 93.6652 68.9035 111.767 85.6966 113.99C85.7511 113.996 85.8055 114 85.8592 114C86.4382 114 86.9428 113.59 87.0249 113.024C87.1138 112.406 86.6629 111.836 86.0187 111.75C70.3016 109.671 58.0775 91.8465 57.9625 91.6766C49.4464 78.7841 42.4843 74.9649 39.186 73.8331C39.9086 72.9394 40.604 71.989 41.2367 70.9582C43.54 71.7998 50.2706 74.9594 56.9893 84.8287C57.5768 85.6004 71.4312 103.571 87.5578 106.589L92.3685 113.498C92.5878 113.813 92.9559 114 93.3478 114C93.3746 114 93.4015 113.999 93.4291 113.997C93.8501 113.969 94.2236 113.727 94.4076 113.363L97.9882 106.271L99.0955 105.37C99.5917 104.966 99.6523 104.253 99.2313 103.777C98.8102 103.303 98.0687 103.243 97.571 103.647L96.2742 104.703C96.1492 104.804 96.048 104.93 95.9766 105.072L93.1844 110.601L89.2404 104.937C89.0617 104.679 88.781 104.504 88.4635 104.451C81.8383 103.343 75.4692 99.3426 70.3499 95.1339C74.7092 95.6621 82.1659 96.9837 87.2273 100.116C87.2387 100.121 87.2474 100.131 87.2589 100.136C89.6376 101.615 91.486 103.492 92.2174 105.883C92.3685 106.375 92.8378 106.694 93.347 106.694C93.4574 106.694 93.5686 106.68 93.6798 106.649C94.3041 106.473 94.6614 105.845 94.4782 105.246C93.7075 102.727 91.9869 100.705 89.7637 99.0816C90.1867 98.8054 90.6957 98.4913 91.2772 98.1721C91.8416 97.8624 92.0372 97.1716 91.7143 96.6301C91.393 96.0886 90.6729 95.901 90.1069 96.2107C89.0483 96.7918 88.2067 97.3535 87.6619 97.7405C80.3399 93.6256 69.7907 92.7287 67.4042 92.5751C62.2773 87.8824 58.9768 83.6092 58.9265 83.5442C55.1375 77.9771 51.3395 74.4333 48.2127 72.1888L49.1641 71.8406C49.2369 71.8141 49.306 71.781 49.3719 71.7413C55.9706 67.7583 59.3313 58.7009 60.9091 52.6009C61.9862 57.0294 63.609 61.2708 65.7655 65.1884C65.9764 65.5725 66.3851 65.791 66.8077 65.791C66.9932 65.791 67.1811 65.749 67.3567 65.66C67.9319 65.3687 68.152 64.6852 67.8483 64.1334C63.8375 56.8463 61.7179 48.3909 61.7179 39.6809C61.7179 37.3951 61.8774 35.1858 62.1926 33.1155C62.1994 33.0703 62.1839 33.0289 62.1851 32.9843C63.0408 32.5022 63.9785 31.5375 64.7402 29.6114C64.7701 29.504 67.9081 18.9128 85.9988 21.938C86.6368 22.0469 87.2503 21.6342 87.3615 21.0191C87.4735 20.4041 87.0448 19.8192 86.4037 19.7118C66.2003 16.3283 62.4978 28.9073 62.5001 28.9206C61.7033 30.9312 60.8222 31.2424 60.4848 31.163C56.1373 30.1286 53.3382 28.6013 52.6043 26.8613C52.102 25.6717 52.717 24.7043 52.7347 24.6756C52.7715 24.6226 52.8037 24.5667 52.8305 24.5086C56.4974 16.5525 60.1869 10.9777 64.0967 7.45206C65.9279 6.07639 70.4976 3.89752 79.3814 6.46917C80.0033 6.64573 80.6613 6.31025 80.85 5.7136C81.0378 5.11548 80.6851 4.48498 80.0624 4.30473C77.4042 3.53639 75.0836 3.16771 73.0537 3.06149C75.9974 2.12835 81.161 1.62807 89.8991 3.75149C107.01 7.90893 111.451 12.6652 112.576 15.1306C112.847 15.7237 112.953 16.2417 112.985 16.6855C109.166 13.8369 103.407 11.166 95.7205 8.70202C95.1009 8.50412 94.4367 8.82415 94.2297 9.41565C94.0234 10.0079 94.357 10.6479 94.9736 10.8459C110.301 15.7589 114.81 20.5019 115.892 23.6154C116.393 25.0547 116.134 26.1243 115.898 26.6941C115.655 26.6775 115.407 26.713 115.186 26.8481C114.637 27.1828 114.475 27.881 114.824 28.4078C116.88 31.511 117.53 35.3065 116.998 41.0779C116.327 41.3747 115.742 41.7725 115.277 42.3236C113.451 44.488 114.152 47.7597 114.183 47.898C114.195 47.9509 114.222 47.9963 114.242 48.0457C114.072 48.0337 113.899 48.0485 113.729 48.1113C113.123 48.3387 112.824 48.9942 113.06 49.5754C113.182 49.8748 116.06 56.9316 117.097 58.7437C117.137 58.8099 117.172 58.9225 117.168 58.9534C117.162 58.9644 116.424 59.912 110.889 59.1763C110.236 59.0836 109.649 59.5213 109.56 60.14C109.471 60.7588 109.921 61.3289 110.565 61.4143C111.669 61.5613 112.626 61.6357 113.514 61.6743C113.418 62.1171 113.323 62.5617 113.222 62.999C110.994 62.1159 106.401 60.8498 101.228 62.528C101.159 62.5501 101.092 62.5762 101.024 62.5991C100.691 62.7118 100.358 62.8318 100.021 62.97C99.8717 63.0308 99.7252 63.1004 99.5775 63.1656C99.3197 63.2798 99.0626 63.3927 98.8031 63.523C98.5774 63.636 98.3558 63.763 98.1331 63.8865C97.9462 63.9904 97.7599 64.0862 97.5725 64.1991C97.1546 64.4505 96.7413 64.7181 96.3348 65.0074C95.992 65.251 95.8141 65.6534 95.8677 66.0588C95.9222 66.4649 96.2006 66.8106 96.5963 66.9637L99.8072 68.2048C99.9205 68.249 100.039 68.2752 100.159 68.2838C100.196 68.2864 100.232 68.2762 100.268 68.2754C100.352 68.2739 100.436 68.275 100.519 68.2563C100.523 68.2553 100.559 68.2475 100.603 68.2383C100.644 68.2299 100.708 68.2177 100.776 68.2049C100.793 68.2017 100.806 68.199 100.825 68.1955C100.904 68.1809 101.005 68.1637 101.112 68.1459C101.135 68.142 101.155 68.1386 101.18 68.1345C101.289 68.1169 101.416 68.0981 101.548 68.0794C101.583 68.0745 101.616 68.0696 101.652 68.0646C101.789 68.0462 101.938 68.0279 102.094 68.0103C102.136 68.0054 102.179 68.0005 102.223 67.9957C102.384 67.9785 102.555 67.9626 102.733 67.948C102.778 67.9443 102.823 67.9406 102.87 67.9371C103.058 67.923 103.253 67.9112 103.455 67.9021C103.494 67.9004 103.533 67.8988 103.572 67.8973C103.787 67.889 104.007 67.8839 104.233 67.8834C104.258 67.8833 104.283 67.8836 104.308 67.8836C104.594 67.8842 104.89 67.8918 105.192 67.909C105.209 67.91 105.226 67.9108 105.243 67.9118C105.56 67.9307 105.883 67.9597 106.209 68.0021C106.212 68.0025 106.215 68.0028 106.218 68.0031C107.218 68.1343 108.237 68.3887 109.141 68.8411C109.155 68.8483 109.168 68.8575 109.182 68.8648C109.443 68.9978 109.692 69.1509 109.93 69.3192C110.017 69.3811 110.097 69.4525 110.18 69.5193C110.337 69.6448 110.489 69.7777 110.631 69.9222C110.728 70.0209 110.818 70.1273 110.907 70.2351C110.97 70.3107 111.025 70.3953 111.084 70.4757C110.436 72.3134 109.761 73.9072 109.04 75.2881C108.706 74.8599 108.294 74.495 107.81 74.2C104.69 72.2982 99.6001 73.8454 99.028 74.0279C97.8079 74.42 96.1707 74.7356 95.3156 74.0051C94.2197 73.0693 94.4674 70.6105 94.64 69.8233C94.653 69.7645 94.6614 69.7034 94.6645 69.6438C94.6911 69.128 94.698 68.5975 94.6882 68.0546C94.6845 67.851 94.6672 67.6376 94.6585 67.4303C94.644 67.0874 94.6323 66.7465 94.6039 66.3935C94.5824 66.1245 94.5462 65.8452 94.5166 65.5705C94.4838 65.2675 94.4552 64.9675 94.4127 64.6575C94.3705 64.3505 94.3149 64.034 94.2631 63.7202C94.2152 63.4296 94.1707 63.1416 94.1146 62.8453C94.052 62.5147 93.9771 62.1757 93.9042 61.8381C93.8409 61.5443 93.7796 61.2523 93.7086 60.9533C93.6267 60.6089 93.534 60.2572 93.4419 59.9058C93.3615 59.5992 93.2817 59.2931 93.1935 58.9812C93.0949 58.6326 92.9875 58.2782 92.8791 57.923C92.778 57.5912 92.6757 57.2588 92.566 56.9213C92.4547 56.5789 92.3365 56.2321 92.2163 55.8839C92.1451 55.6774 92.0831 55.4768 92.0088 55.2682C92.0033 55.2528 91.9903 55.2427 91.9842 55.2277C91.8753 54.9228 91.7768 54.6246 91.6614 54.3155C91.4413 53.7277 90.7649 53.4216 90.1553 53.6328C89.5425 53.8432 89.2243 54.4899 89.4436 55.0777C89.634 55.5873 89.8054 56.0871 89.9774 56.5869C90.0351 56.7541 90.0901 56.9193 90.1456 57.085C90.2577 58.2399 90.8994 67.2335 84.3676 72.5219C83.8707 72.9243 83.8078 73.6372 84.2273 74.1147C84.4604 74.3795 84.7933 74.5156 85.1284 74.5156C85.3968 74.5156 85.666 74.4281 85.8876 74.2493C89.4885 71.3338 91.1773 67.5364 91.9542 64.2134C92.0702 64.9327 92.1683 65.6384 92.2303 66.3146C92.2312 66.3251 92.2328 66.3359 92.2338 66.3464C92.2768 66.8213 92.3004 67.28 92.3164 67.732C92.3191 67.8129 92.3268 67.8978 92.3286 67.9782C92.3381 68.3603 92.3291 68.7259 92.3187 69.0903C92.3152 69.2132 92.3186 69.3416 92.3128 69.4628C92.1801 70.1165 91.7578 72.7792 92.9435 74.7158C90.995 75.3645 88.2232 76.8182 86.2265 80.0827C85.8976 80.6205 86.0854 81.3128 86.6468 81.6291C86.8339 81.7343 87.0387 81.7844 87.2419 81.7844C87.646 81.7844 88.0395 81.585 88.2588 81.226C90.6395 77.3337 94.3165 76.6023 95.2264 76.478C96.2846 76.7987 97.571 76.7637 99.0782 76.3672C100.346 77.6357 103.789 81.9175 100.848 88.7713C100.6 89.3488 100.887 90.0088 101.488 90.2464C101.635 90.3045 101.787 90.3317 101.936 90.3317C102.399 90.3317 102.839 90.0684 103.026 89.6321C105.938 82.8467 103.388 78.0388 101.581 75.7478C103.189 75.4645 105.28 75.3374 106.547 76.1077C107.202 76.5072 107.574 77.1384 107.685 78.0374C107.744 78.512 108.107 78.9004 108.593 79.0071C108.68 79.0262 108.768 79.035 108.855 79.035C109.252 79.035 109.63 78.8423 109.849 78.5112C110.038 78.2262 110.217 77.9062 110.399 77.6007C111.858 79.8262 115.266 85.6851 113.928 90.0845C113.497 91.4993 112.605 92.6246 111.239 93.5C111.599 91.0453 111.528 88.0411 110.96 85.404C110.828 84.7926 110.207 84.3961 109.568 84.5263C108.931 84.6521 108.521 85.2503 108.653 85.8616C109.512 89.8506 109.058 94.3244 108.047 96.0938C107.343 97.6431 106.129 99.2117 105.596 99.261C105.523 99.2676 105.45 99.2816 105.379 99.3014C105.35 99.3091 104.117 99.6322 102.435 99.2439C104.253 98.243 106.373 96.3924 106.876 93.0928C106.969 92.4748 106.524 91.9017 105.88 91.8112C105.244 91.72 104.639 92.1489 104.544 92.7662C104.008 96.2907 100.89 97.591 99.6574 97.972C98.1111 96.8867 96.5209 95.0413 95.265 91.8789C95.2562 91.8568 95.2334 91.844 95.2231 91.8227C95.2081 91.7908 95.2081 91.7562 95.1898 91.7252C92.768 87.617 97.8156 82.7128 97.867 82.6635C98.3271 82.2236 98.3294 81.5085 97.8708 81.0663C97.413 80.6242 96.6684 80.6212 96.2075 81.0597C95.9673 81.288 90.841 86.2683 92.5154 91.4157C91.8514 91.1391 90.4642 90.0847 88.8431 86.0404C88.8241 85.9928 88.7923 85.9532 88.7671 85.9093C88.749 85.8773 88.7341 85.8458 88.7127 85.8155C88.6353 85.7063 88.5427 85.6104 88.4325 85.5338C88.4267 85.5298 88.4241 85.5235 88.4183 85.5195C88.4018 85.5085 88.382 85.5076 88.3652 85.4975C88.2668 85.438 88.1605 85.3946 88.0466 85.365C88.011 85.3559 87.9773 85.3464 87.9411 85.3407C87.9119 85.3358 87.8852 85.3236 87.8554 85.3209C87.8243 85.3178 86.5123 85.1783 84.7744 84.6229C78.2826 79.881 81.6538 69.1068 81.6889 68.9979C81.8807 68.402 81.534 67.7693 80.9128 67.5846C80.2901 67.3999 79.6322 67.7325 79.4389 68.3277C79.3107 68.7221 77.0313 76.0224 79.7115 81.9254C78.7404 81.1143 77.8514 80.125 77.1782 78.8916L75.1291 74.0183C75.1287 74.0175 75.1231 74.0038 75.1222 74.0015V74.0014C75.1211 73.9989 75.1162 73.9867 75.1148 73.9834C74.9458 73.5865 71.6574 65.473 78.8561 54.2544C78.928 54.17 79.5018 53.482 80.1749 52.3089C81.6559 49.728 83.6178 44.7992 81.7741 38.7848L81.6049 38.2509C81.8086 38.3686 82.0782 38.5439 82.3843 38.7901C83.6067 39.7752 85.4235 41.9123 85.9503 46.1137C85.9533 46.1373 85.9578 46.1581 85.9606 46.1819C86.0019 46.5216 86.0335 46.8763 86.0569 47.2433C86.0398 47.7259 85.7055 54.9898 81.2533 60.8794C80.8714 61.3848 80.9888 62.0911 81.5148 62.4575C81.7242 62.6032 81.9658 62.6731 82.2058 62.6731C82.5701 62.6731 82.9297 62.5112 83.1598 62.2066C88.1713 55.5772 88.4068 47.5831 88.4145 47.2461C88.4148 47.2297 88.4061 47.2158 88.4057 47.1995C88.4054 47.1842 88.4131 47.171 88.4121 47.1557C88.1947 43.6065 87.1798 41.12 86.0247 39.4077C84.5398 37.2063 82.8234 36.2851 82.2725 36.0318L80.182 34.4898C80.1789 34.4876 80.1752 34.4869 80.1721 34.4847C80.1696 34.4828 80.1685 34.4799 80.1659 34.478C79.4259 33.952 72.8185 29.3973 68.8223 31.6412C66.5853 32.9014 65.8008 35.7582 66.4166 40.2857C66.458 41.1045 66.925 48.3512 70.3698 50.5914C71.0623 51.0416 71.833 51.2682 72.6482 51.2682C73.1513 51.2682 73.672 51.1821 74.2011 51.0078C74.8169 50.8055 75.1444 50.1625 74.9335 49.5724C74.7218 48.9817 74.0531 48.6668 73.4373 48.8698C72.5347 49.1663 72.0094 48.9265 71.6927 48.7212C69.8246 47.5073 68.9081 42.8349 68.7609 40.0856C68.2854 36.5667 68.7187 34.3213 70.014 33.5915C72.1314 32.4002 76.6357 34.8677 78.454 36.0818L79.5164 39.4323C80.8213 43.6885 79.8866 47.3768 78.7946 49.8208C78.5519 50.3639 78.3015 50.8456 78.0662 51.2584C77.8309 51.6712 77.6107 52.0151 77.4283 52.2827C77.1549 52.6843 76.9668 52.914 76.9412 52.9471C68.8675 65.5084 72.797 74.5399 72.9557 74.8908L75.0416 79.837C77.8267 84.9502 83.2463 86.7167 85.98 87.3002C85.2683 89.007 84.565 92.032 86.1545 95.709C86.3423 96.1445 86.781 96.4064 87.2434 96.4064C87.3937 96.4064 87.5463 96.3792 87.6936 96.3204C88.2948 96.0812 88.5801 95.4199 88.3309 94.8438C87.3614 92.6016 87.4457 90.6818 87.7777 89.3115C89.1214 91.8634 90.5759 93.3175 92.1944 93.6946C92.6952 93.8109 93.1384 93.8087 93.5165 93.7469C94.9816 96.9552 96.8121 98.8849 98.618 100.042C98.6921 100.106 98.7758 100.154 98.8641 100.199C100.843 101.392 102.77 101.674 104.128 101.674C105.01 101.674 105.652 101.558 105.913 101.5C106.204 101.463 106.482 101.37 106.751 101.243C106.209 106.489 103.603 110.047 98.9659 111.82C98.3616 112.051 98.0671 112.709 98.3079 113.289C98.492 113.731 98.9345 114 99.4023 114C99.548 114 99.6952 113.974 99.8386 113.92C105.977 111.572 109.222 106.45 109.222 99.1079C109.222 99.0251 109.191 98.9521 109.173 98.8743C109.659 98.1353 110.002 97.4392 110.158 97.0914C110.267 96.9021 110.358 96.6676 110.454 96.4443C113.468 95.2323 115.403 93.3083 116.191 90.7128C118.184 84.1452 111.949 75.72 111.683 75.3639C111.668 75.3434 111.644 75.3335 111.627 75.3143C112.229 74.0554 112.799 72.6499 113.345 71.0898C114.347 70.4142 116.942 68.4496 116.786 66.2773C116.739 65.6306 116.423 64.7683 115.377 64.0645C115.566 63.2631 115.753 62.4585 115.928 61.6375C117.556 61.4642 118.616 60.9803 119.156 60.1665C119.824 59.1579 119.427 58.0374 119.132 57.6063C118.387 56.3009 116.276 51.2586 115.26 48.7644C115.285 48.7661 115.31 48.772 115.335 48.772C115.716 48.772 116.088 48.5888 116.315 48.2879C116.33 48.268 116.705 47.7861 117.792 47.5198C119.939 46.9864 121.283 46.0344 121.789 44.6903C122.475 42.8687 121.282 41.2009 121.143 41.0162C120.935 40.7389 120.606 40.5667 120.251 40.5483ZM43.3182 45.6114C43.5304 44.9633 43.9514 44.4188 44.404 43.9787C45.0265 43.5489 50.2326 40.1021 54.3812 41.852C54.9793 42.1073 55.6726 41.8446 55.9333 41.2722C56.1956 40.7013 55.9249 40.0341 55.329 39.7832C52.1508 38.4434 48.7218 39.3106 46.2729 40.366C45.9261 39.5285 46.1245 39.0571 46.2039 38.879C46.6823 37.8085 48.3795 37.0863 49.5605 36.7263C49.5632 36.7256 49.5659 36.7249 49.5686 36.724C49.9308 36.614 50.2486 36.5352 50.4609 36.4946C50.533 36.4806 50.6051 36.4608 50.6725 36.4343C50.7133 36.42 54.5584 35.0026 59.4429 37.4083C59.4081 38.1619 59.362 38.9095 59.362 39.6809C59.362 40.2673 59.397 40.8488 59.4154 41.4327C57.8807 44.8615 56.4381 45.0589 56.1227 45.0589C56.0691 45.0582 56.0537 45.0545 56.0599 45.0574C55.6879 44.9206 55.2715 44.9743 54.951 45.1972C54.6289 45.4201 54.4464 45.7828 54.464 46.1632C54.5629 48.3166 54.1281 49.8513 53.2055 50.6009C52.5821 51.1078 51.8022 51.2086 51.3183 51.1843C49.8547 48.7745 47.5626 47.9292 45.5382 47.7834C46.276 47.0549 47.7429 46.3264 50.6795 46.5009C51.3328 46.5472 51.8881 46.0653 51.9279 45.4429C51.9686 44.8198 51.4747 44.2842 50.8252 44.2452C46.2412 43.9702 44.1644 45.6043 43.2226 47.0104C43.1471 46.5281 43.1707 46.0626 43.3182 45.6114ZM39.4761 55.717C39.5543 55.5772 39.6011 55.4227 39.6126 55.2638C39.9045 51.3482 42.971 50.3014 43.1519 50.2424C43.3695 50.1778 47.5406 49.0378 49.4476 52.6282C50.331 56.477 45.9685 60.1422 45.8926 60.2055L43.1119 62.665C41.71 61.2046 38.8933 60.3276 36.7023 59.8406C37.8726 58.4759 38.9347 56.6867 39.4761 55.717ZM25.7091 67.4794C25.9354 67.3094 26.0887 67.0652 26.1409 66.7945L26.8372 63.1616C27.2881 62.1154 27.9476 61.44 28.8503 61.0994C30.2176 60.5825 31.837 60.934 32.7944 61.236C31.1638 61.9995 29.9541 63.0152 29.2046 64.2901C28.1146 66.1443 28.3023 67.9966 28.5225 68.9788C26.1033 70.8057 23.6462 73.5995 21.8148 77.8105L21.627 77.7152C21.2743 70.9556 25.5258 67.6192 25.7091 67.4794ZM20.9867 88.3498L16.5265 85.4312C16.8287 84.8434 17.933 84.1187 18.8034 83.7641C19.3586 83.5368 19.647 82.9438 19.4698 82.3906C19.1032 81.2466 19.0856 80.3829 19.4207 79.9569C19.6429 79.6752 20.0126 79.5981 20.245 79.5708L25.537 82.2561L20.9867 88.3498ZM27.2835 80.5852L26.3986 80.1361C27.1576 78.6374 29.2051 75.5446 33.687 74.058C34.302 73.8535 34.6279 73.2105 34.4155 72.6205C34.2031 72.0319 33.5321 71.7178 32.917 71.9216C27.713 73.648 25.283 77.1924 24.316 79.0795L23.9034 78.8702C28.2999 68.5354 36.7929 67.7449 37.1632 67.717C37.8097 67.6707 38.2959 67.1307 38.2499 66.5097C38.2039 65.8873 37.6371 65.4253 36.9914 65.4628C36.7688 65.478 34.0125 65.7062 30.7174 67.5388C30.7086 66.9051 30.8189 66.1331 31.2713 65.376C32.1715 63.8688 34.124 62.8293 37.0602 62.2758C39.338 62.8809 41.2663 63.7151 41.5783 64.4457C38.848 73.9966 29.5744 79.3835 27.2835 80.5852ZM48.2132 69.7696L45.8345 70.6405C44.3905 69.7945 43.2011 69.2641 42.35 68.9432C42.9398 67.7468 43.4347 66.4629 43.8265 65.1062L47.4563 61.8947C47.6649 61.7238 52.0916 58.0154 51.9095 53.4112C52.745 53.3408 53.7723 53.0895 54.6971 52.3504C56.0231 51.2918 56.7363 49.5798 56.8237 47.2535C57.6253 47.1015 58.6412 46.6261 59.6824 45.4336C59.7174 45.7682 59.7346 46.1064 59.7757 46.4396C59.5281 48.1349 56.937 64.3969 48.2132 69.7696ZM59.7938 33.3201C59.7948 33.3204 59.8005 33.3222 59.8019 33.3226C59.7265 33.866 59.6726 34.4259 59.6173 34.9849C54.6266 32.8748 50.6395 34.0445 49.908 34.2963C49.898 34.2984 49.8758 34.3038 49.8648 34.3061C49.5702 33.6181 49.2607 32.5532 49.6119 31.5956C49.9066 30.7935 50.6815 30.1636 51.8692 29.6996C53.4837 31.2329 56.1356 32.4547 59.7938 33.3201ZM112.69 68.7205C112.537 68.5408 112.363 68.378 112.192 68.2134C112.13 68.1539 112.074 68.0862 112.011 68.0292C111.868 67.9009 111.708 67.7877 111.553 67.6694C111.43 67.5749 111.313 67.4711 111.185 67.3848C111.135 67.3508 111.078 67.3236 111.026 67.2906C110.782 67.1336 110.534 66.9833 110.277 66.8529C110.238 66.8331 110.194 66.8176 110.154 66.7983C109.873 66.6611 109.587 66.5348 109.295 66.4258C109.217 66.3966 109.132 66.3738 109.053 66.3463C108.783 66.2532 108.513 66.1664 108.238 66.0942C108.137 66.0676 108.031 66.0458 107.928 66.0214C107.649 65.9558 107.371 65.8975 107.091 65.8502C106.991 65.8331 106.888 65.8172 106.786 65.8021C106.433 65.7501 106.084 65.7096 105.738 65.6818C105.698 65.6787 105.66 65.6739 105.62 65.671C103.289 65.5006 101.195 65.8203 100.355 65.9793L100.103 65.8824L99.5848 65.6821C100.087 65.4172 100.599 65.1893 101.117 64.9858C101.232 64.9404 101.346 64.9045 101.46 64.8625C101.889 64.7063 102.323 64.567 102.762 64.4524C102.854 64.4283 102.946 64.4034 103.038 64.3813C104.146 64.1157 105.284 63.9752 106.451 63.9752C109.983 63.9752 112.694 65.2194 113.378 65.5614C113.406 65.5765 113.443 65.5957 113.454 65.6019C113.456 65.6028 113.458 65.6025 113.459 65.6034C113.488 65.6182 113.538 65.6438 113.545 65.6475C113.867 65.7946 114.411 66.0919 114.436 66.4318C114.479 67.0218 113.613 67.9723 112.69 68.7205ZM119.57 43.9311C119.346 44.5108 118.505 45.0081 117.205 45.3311C116.917 45.4017 116.655 45.4849 116.415 45.5754C116.49 44.9228 116.686 44.2423 117.113 43.7398C117.613 43.1498 118.389 42.8415 119.478 42.7996C119.61 43.1181 119.718 43.5478 119.57 43.9311Z" fill="url(#paint3_linear_34_92)"/>
<path d="M68.5906 114C69.1313 114 69.6182 113.642 69.7402 113.115C69.8805 112.506 69.4802 111.902 68.8452 111.766C57.8075 109.417 48.3236 92.5676 48.2285 92.3976C47.9232 91.8458 47.207 91.6384 46.6349 91.9326C46.0613 92.2262 45.8442 92.9104 46.1502 93.4607C46.5559 94.192 56.2377 111.399 68.3345 113.974C68.4204 113.991 68.5063 114 68.5906 114Z" fill="url(#paint4_linear_34_92)"/>
<path d="M29.6614 92.4881C29.2097 92.0408 28.4628 92.0297 27.9957 92.4631C27.5287 92.8979 27.5172 93.613 27.9697 94.061C31.1031 97.1613 32.7811 100.319 32.9544 103.36C32.9191 104.868 32.9306 112.463 36.6285 113.915C36.775 113.973 36.926 114 37.074 114C37.538 114 37.9782 113.736 38.1645 113.298C38.4115 112.721 38.1231 112.061 37.5211 111.825C35.8977 111.187 35.242 106.427 35.3087 103.325C35.1016 99.6369 33.2021 95.9915 29.6614 92.4881Z" fill="url(#paint5_linear_34_92)"/>
<path d="M113.158 100.78C113.155 100.78 113.151 100.78 113.146 100.78C112.496 100.787 111.974 101.297 111.981 101.922C112.023 105.99 110.973 109.448 108.859 112.199C108.472 112.701 108.584 113.409 109.107 113.779C109.318 113.929 109.563 114 109.806 114C110.167 114 110.523 113.841 110.754 113.541C113.179 110.386 114.385 106.469 114.336 101.898C114.329 101.278 113.803 100.78 113.158 100.78Z" fill="url(#paint6_linear_34_92)"/>
<path d="M78.1629 44.2468C78.5586 44.2953 78.972 44.1364 79.2319 43.809C79.6269 43.3131 79.5272 42.6039 79.0095 42.2258C78.8554 42.1125 78.4298 41.8638 77.7726 41.9793C76.8531 42.1456 75.9336 42.9725 74.8868 44.5771C74.5862 44.7772 74.0685 45.0214 73.8254 44.9236C73.6299 44.85 73.2564 44.3608 73.0954 42.9961C73.0225 42.3759 72.4336 41.9315 71.7924 42.0007C71.146 42.0705 70.6812 42.6304 70.7549 43.2506C70.9957 45.2922 71.7372 46.562 72.9589 47.0255C73.2932 47.1528 73.6268 47.2043 73.9481 47.2043C75.2702 47.2043 76.3906 46.3281 76.5402 46.2059C76.636 46.1279 76.7181 46.036 76.7833 45.933C77.508 44.7919 77.9727 44.3821 78.1629 44.2468Z" fill="url(#paint7_linear_34_92)"/>
<path d="M113.301 27.7524C113.927 27.7524 114.448 27.2793 114.477 26.6738C114.49 26.4053 114.636 20.0474 101.368 16.0988C100.746 15.9157 100.086 16.2475 99.8938 16.8434C99.7013 17.4393 100.049 18.0727 100.67 18.2574C111.915 21.6034 112.12 26.4619 112.123 26.5914C112.105 27.2057 112.604 27.7229 113.247 27.7509C113.265 27.7516 113.284 27.7524 113.301 27.7524Z" fill="url(#paint8_linear_34_92)"/>
<defs>
<linearGradient id="paint0_linear_34_92" x1="67.4119" y1="8.67651" x2="110.985" y2="8.67651" gradientUnits="userSpaceOnUse">
<stop/>
<stop offset="0.5" stop-color="#655F1A"/>
<stop offset="1" stop-color="#AE630B"/>
</linearGradient>
<linearGradient id="paint1_linear_34_92" x1="59.3621" y1="13.5181" x2="83.2161" y2="13.5181" gradientUnits="userSpaceOnUse">
<stop/>
<stop offset="0.5" stop-color="#655F1A"/>
<stop offset="1" stop-color="#AE630B"/>
</linearGradient>
<linearGradient id="paint2_linear_34_92" x1="94.1691" y1="37.4555" x2="112.544" y2="37.4555" gradientUnits="userSpaceOnUse">
<stop/>
<stop offset="0.5" stop-color="#655F1A"/>
<stop offset="1" stop-color="#AE630B"/>
</linearGradient>
<linearGradient id="paint3_linear_34_92" x1="0" y1="0" x2="122" y2="0" gradientUnits="userSpaceOnUse">
<stop/>
<stop offset="0.5" stop-color="#655F1A"/>
<stop offset="1" stop-color="#AE630B"/>
</linearGradient>
<linearGradient id="paint4_linear_34_92" x1="46.0115" y1="91.7989" x2="69.7682" y2="91.7989" gradientUnits="userSpaceOnUse">
<stop/>
<stop offset="0.5" stop-color="#655F1A"/>
<stop offset="1" stop-color="#AE630B"/>
</linearGradient>
<linearGradient id="paint5_linear_34_92" x1="27.6378" y1="92.1452" x2="38.2529" y2="92.1452" gradientUnits="userSpaceOnUse">
<stop/>
<stop offset="0.5" stop-color="#655F1A"/>
<stop offset="1" stop-color="#AE630B"/>
</linearGradient>
<linearGradient id="paint6_linear_34_92" x1="108.628" y1="100.78" x2="114.338" y2="100.78" gradientUnits="userSpaceOnUse">
<stop/>
<stop offset="0.5" stop-color="#655F1A"/>
<stop offset="1" stop-color="#AE630B"/>
</linearGradient>
<linearGradient id="paint7_linear_34_92" x1="70.7472" y1="41.9494" x2="79.4736" y2="41.9494" gradientUnits="userSpaceOnUse">
<stop/>
<stop offset="0.5" stop-color="#655F1A"/>
<stop offset="1" stop-color="#AE630B"/>
</linearGradient>
<linearGradient id="paint8_linear_34_92" x1="99.8407" y1="16.0485" x2="114.478" y2="16.0485" gradientUnits="userSpaceOnUse">
<stop/>
<stop offset="0.5" stop-color="#655F1A"/>
<stop offset="1" stop-color="#AE630B"/>
</linearGradient>
</defs>
</svg>
