<svg width="340" height="206" viewBox="0 0 340 206" fill="none" xmlns="http://www.w3.org/2000/svg">
<g clip-path="url(#clip0_59_2)">
<path d="M158.798 102.846C166.281 102.846 172.67 98.1299 175.189 91.5212C175.928 89.5818 176.351 87.4885 176.351 85.2932C176.351 75.6142 168.477 67.7417 158.798 67.7417C149.12 67.7417 141.246 75.6142 141.246 85.2932C141.246 87.4869 141.669 89.5802 142.408 91.5179C144.927 98.1283 151.314 102.846 158.798 102.846ZM158.801 95.1018C161.972 95.1018 165.048 94.7178 168.002 94.0081C165.687 96.4514 162.422 97.9857 158.798 97.9857C155.175 97.9857 151.909 96.4514 149.595 94.0065C152.549 94.7145 155.628 95.1018 158.801 95.1018Z" fill="url(#paint0_linear_59_2)"/>
<path d="M146.606 55.7974C146.606 46.12 138.732 38.2476 129.054 38.2476C126.972 38.2476 124.984 38.6299 123.131 39.2974C116.362 41.7342 111.501 48.2004 111.501 55.7974C111.501 63.3945 116.362 69.8639 123.131 72.3022C124.984 72.9698 126.974 73.3521 129.054 73.3521C138.733 73.3521 146.606 65.478 146.606 55.7974ZM116.362 55.7974C116.362 52.0191 118.031 48.6329 120.659 46.3064C119.904 49.3474 119.497 52.5263 119.497 55.8006C119.497 59.075 119.904 62.2522 120.659 65.2917C118.031 62.9651 116.362 59.5757 116.362 55.7974Z" fill="url(#paint1_linear_59_2)"/>
<path d="M158.798 43.3529C168.477 43.3529 176.351 35.4788 176.351 25.8015C176.351 23.8346 176.01 21.9487 175.411 20.181C173.06 13.2548 166.508 8.25 158.798 8.25C151.087 8.25 144.535 13.2564 142.186 20.1843C141.586 21.9503 141.246 23.8362 141.246 25.8031C141.246 35.4788 149.12 43.3529 158.798 43.3529ZM158.798 13.1089C162.731 13.1089 166.254 14.9073 168.582 17.7265C165.455 16.9261 162.177 16.4984 158.801 16.4984C155.423 16.4984 152.143 16.9261 149.013 17.7281C151.343 14.909 154.864 13.1089 158.798 13.1089Z" fill="url(#paint2_linear_59_2)"/>
<path d="M170.994 55.7974C170.994 65.478 178.867 73.3521 188.546 73.3521C190.626 73.3521 192.616 72.9698 194.468 72.3022C201.237 69.8655 206.097 63.3993 206.097 55.8006C206.097 48.202 201.237 41.7358 194.468 39.2974C192.614 38.6299 190.626 38.2476 188.546 38.2476C178.868 38.2476 170.994 46.12 170.994 55.7974ZM201.237 55.8006C201.237 59.5789 199.568 62.9683 196.94 65.2933C197.695 62.2522 198.102 59.075 198.102 55.8006C198.102 52.5263 197.695 49.3474 196.94 46.3064C199.568 48.6329 201.237 52.0208 201.237 55.8006Z" fill="url(#paint3_linear_59_2)"/>
<path d="M149.922 55.801C149.922 60.6956 153.905 64.678 158.799 64.678C163.694 64.678 167.676 60.6956 167.676 55.801C167.676 50.9064 163.694 46.9224 158.799 46.9224C153.905 46.9224 149.922 50.9048 149.922 55.801ZM162.816 55.801C162.816 58.0158 161.014 59.8174 158.799 59.8174C156.584 59.8174 154.783 58.0158 154.783 55.801C154.783 53.5846 156.584 51.7829 158.799 51.7829C161.014 51.7829 162.816 53.5846 162.816 55.801Z" fill="url(#paint4_linear_59_2)"/>
<path d="M238.219 54.9778C238.219 53.6346 237.13 52.5475 235.789 52.5475C234.447 52.5475 233.359 53.6346 233.359 54.9778C233.359 83.4736 210.182 106.657 181.689 106.668C201.07 97.9111 214.598 78.4121 214.598 55.7992C214.598 25.0303 189.567 0 158.799 0C128.032 0 103 25.0319 103 55.7992C103 86.5681 128.032 111.6 158.799 111.6C159.741 111.6 160.675 111.574 161.604 111.529H181.673C212.853 111.527 238.219 86.1599 238.219 54.9778ZM107.861 55.7992C107.861 27.7117 130.712 4.86056 158.799 4.86056C186.887 4.86056 209.738 27.7117 209.738 55.7992C209.738 82.9892 188.324 105.27 161.477 106.668H158.799C158.621 106.668 158.449 106.691 158.281 106.726C130.433 106.448 107.861 83.7134 107.861 55.7992Z" fill="url(#paint5_linear_59_2)"/>
<path d="M21.0448 205.054C22.4856 205.054 27.7685 205.15 28.8251 204.958C29.4975 204.766 29.8817 203.037 30.0738 202.46C30.6501 200.635 31.0344 198.714 31.5146 196.889C32.5712 192.087 43.2331 151.744 46.9792 136.664C47.1713 135.991 47.3634 135.223 47.1713 134.551C46.8831 133.11 46.0187 132.918 44.866 132.918C42.6568 133.014 40.4476 132.918 38.2384 132.918C35.741 132.918 34.7804 133.206 34.012 135.991C30.2659 148.863 27.7685 164.231 24.3106 177.294L23.7343 178.831C23.7343 178.927 23.3501 178.831 23.3501 178.831C23.158 178.351 22.8698 177.967 22.7738 177.486C19.3158 163.751 13.6487 136.568 12.6882 133.974C12.1118 132.437 10.671 132.918 9.3263 132.918C6.63681 132.918 4.13942 133.014 1.54598 133.014C0.585446 133.11 -0.0869275 133.494 0.00912582 134.455C0.00912582 135.223 1.06571 139.449 1.25782 140.602L2.31441 144.636C2.98678 147.71 3.94731 151.552 4.61969 154.53C8.26971 169.802 12.2079 185.075 16.5303 200.155C16.9145 201.5 17.2027 203.805 18.1632 204.574C18.9316 205.246 20.1803 204.958 21.0448 205.054V205.054ZM77.2552 180.176C76.9671 169.226 77.0631 157.603 77.1592 146.749C77.1592 143.388 76.9671 139.738 76.9671 136.376C76.9671 132.726 75.5263 132.918 73.6052 132.822C70.8196 132.726 69.5709 132.726 66.7854 132.726C64.9604 132.63 64.192 133.11 64.192 134.935C64.192 144.348 63.9038 170.955 63.9999 174.797C64.0959 178.639 64.4801 196.121 64.288 199.963C64.192 201.308 64.288 202.652 64.3841 203.997C64.4801 204.477 64.7683 204.958 65.5367 204.958C68.7065 204.766 71.6841 204.766 74.8539 204.67C76.0065 204.574 76.9671 204.285 77.4473 203.037C77.5434 202.364 77.2552 184.787 77.2552 180.176V180.176ZM107.243 187.572C107.243 184.21 106.763 175.085 106.859 173.164C106.859 172.876 107.051 172.492 107.147 172.492C107.339 172.492 107.723 172.684 107.819 172.78C110.893 176.814 125.301 204.766 127.03 204.862C127.51 204.958 127.991 204.958 128.471 204.958C131.737 204.766 134.618 204.958 137.884 204.958C141.246 204.958 139.037 201.692 138.46 200.827C137.596 199.579 126.166 179.119 125.493 177.871C123.572 174.605 121.939 171.051 120.018 167.881C119.826 167.497 119.634 166.921 119.73 166.536C119.922 165.384 120.21 164.327 120.691 163.271C122.996 158.756 125.397 154.146 128.183 149.823C131.256 144.924 132.985 141.851 135.483 137.432C136.059 136.376 136.443 135.223 136.827 133.974C136.924 133.494 136.539 133.014 135.963 133.014C134.138 132.918 127.51 133.014 125.397 133.014C124.437 133.014 123.476 133.206 122.996 134.07C121.747 136.472 108.876 160.005 107.627 162.118C107.531 162.31 107.243 162.406 106.955 162.406C106.955 162.406 106.763 162.118 106.763 161.926C106.667 156.547 107.627 138.969 107.435 135.415C107.339 133.302 106.955 133.11 104.842 133.014C102.536 132.918 99.3667 132.918 97.0614 132.918C94.9482 132.918 94.7561 134.07 94.468 135.607C94.3719 135.895 94.3719 144.924 94.3719 148.959C94.3719 154.818 93.8917 191.51 94.564 203.133C94.564 204.285 94.8522 204.958 95.8127 204.958C98.4062 204.766 102.248 204.958 104.842 204.958C106.667 204.958 106.955 204.766 106.955 201.692C106.955 197.562 107.339 193.816 107.339 188.725C107.339 188.341 107.243 187.956 107.243 187.572V187.572ZM169.697 180.176C169.409 169.226 169.505 157.603 169.601 146.749C169.601 143.388 169.409 139.738 169.409 136.376C169.409 132.726 167.968 132.918 166.047 132.822C163.261 132.726 162.013 132.726 159.227 132.726C157.402 132.63 156.634 133.11 156.634 134.935C156.634 144.348 156.346 170.955 156.442 174.797C156.538 178.639 156.922 196.121 156.73 199.963C156.634 201.308 156.73 202.652 156.826 203.997C156.922 204.477 157.21 204.958 157.978 204.958C161.148 204.766 164.126 204.766 167.296 204.67C168.448 204.574 169.409 204.285 169.889 203.037C169.985 202.364 169.697 184.787 169.697 180.176V180.176ZM227.54 135.127C227.828 136.472 227.636 200.443 227.636 202.076C227.636 204.958 226.58 204.862 224.659 204.862C221.777 204.862 217.743 205.342 216.878 204.381C216.11 203.709 201.894 169.418 199.877 165.096C199.685 164.711 199.205 163.751 198.82 163.943C198.34 164.135 198.532 164.807 198.532 165.192C198.436 168.554 199.012 197.562 199.012 202.172C199.012 204.477 198.916 204.862 196.995 204.862H192.193C190.944 204.862 189.407 204.766 188.158 204.958C187.198 204.958 186.718 204.67 186.622 203.709V196.121C186.814 188.052 186.622 140.218 186.622 136.664C186.622 133.59 187.486 133.014 190.56 133.014C192.673 132.918 194.786 132.918 196.899 132.918C197.572 132.918 197.956 133.014 198.34 133.878C200.933 139.93 211.98 167.689 213.709 171.051C213.997 171.723 215.053 174.413 215.63 174.701H215.726C216.11 174.317 216.014 172.396 216.014 171.819C216.014 170.379 215.245 136.664 215.245 135.991C215.245 135.031 214.957 134.166 215.438 133.494C215.726 133.11 216.974 133.014 217.455 132.918C220.144 132.726 223.314 133.014 226.003 132.918C227.348 132.918 227.252 133.878 227.54 135.127V135.127ZM287.497 188.821C287.593 193.431 287.497 198.138 287.209 202.749C287.209 203.133 286.92 203.517 286.632 203.709C286.248 203.997 285.768 204.189 285.288 204.189C279.332 205.15 272.128 205.63 266.365 203.709C253.398 199.291 244.561 184.787 244.561 168.169C244.561 150.207 257.432 132.726 276.162 132.053C278.66 131.957 287.209 131.573 286.92 135.799C286.728 138.873 287.016 141.37 286.92 144.54C286.92 145.117 286.536 145.501 285.96 145.405C280.485 144.732 274.241 143.003 268.958 145.501C264.54 147.614 261.466 152.128 259.737 156.547C256.664 163.847 257.336 172.3 259.449 179.792C261.082 185.747 264.636 192.759 271.744 192.951C272.128 193.047 275.778 193.239 275.778 192.855L275.49 180.56C275.394 179.984 275.394 179.408 275.298 178.831C275.202 178.255 274.818 178.063 274.241 177.967C272.705 177.967 272.705 177.871 271.168 177.871C267.614 177.871 268.382 175.469 268.286 174.701C268.19 173.26 268.286 171.915 268.19 170.475C268.094 169.13 268.478 168.073 269.823 167.881H270.976C275.97 167.593 281.061 167.977 286.344 167.977C287.113 167.977 287.497 168.938 287.497 169.802C287.593 170.763 287.593 171.435 287.593 172.396C287.881 177.102 287.305 181.905 287.401 186.612C287.497 187.38 287.497 188.052 287.497 188.821V188.821ZM324.016 132.437C322.191 132.534 320.366 132.822 318.541 133.398C314.603 134.743 311.049 137.432 308.648 140.89C306.535 144.06 305.67 147.806 305.382 151.552C305.19 154.434 305.478 157.411 306.823 160.005C308.263 162.79 310.761 165.192 312.874 167.497C314.795 169.514 316.716 171.531 318.829 173.356C320.75 175.181 322.96 176.622 324.881 178.543C327.666 181.329 328.723 187.668 326.706 191.126C324.304 194.968 318.637 195.545 314.891 194.296C312.97 193.623 311.241 192.183 309.608 191.03C308.648 190.358 307.495 190.069 306.823 191.222C306.438 191.798 306.246 192.471 306.054 193.047C305.382 195.448 304.517 197.658 304.421 200.251C304.325 203.229 309.992 204.093 312.106 204.574C321.519 206.783 332.853 205.054 337.752 195.737C338.712 193.816 339.385 191.798 339.769 189.685C339.865 188.917 339.961 188.244 339.961 187.476C340.345 181.329 337.848 176.142 334.102 171.531C330.068 166.536 324.977 163.078 320.27 158.756C317.389 156.067 316.332 151.84 317.196 147.998C318.061 143.868 322.768 142.811 326.322 143.868C327.378 144.156 328.243 144.636 329.203 145.213C329.779 145.501 330.356 145.885 331.124 145.885C332.469 145.981 332.661 144.924 332.949 143.868C333.622 141.466 334.774 139.545 335.254 137.24C335.735 134.647 333.622 134.166 331.508 133.494C329.011 132.822 326.61 132.341 324.016 132.437V132.437Z" fill="#111111"/>
</g>
<defs>
<linearGradient id="paint0_linear_59_2" x1="141.246" y1="67.7417" x2="176.351" y2="67.7417" gradientUnits="userSpaceOnUse">
<stop stop-color="#7D141D"/>
<stop offset="1" stop-color="#FF1E27"/>
</linearGradient>
<linearGradient id="paint1_linear_59_2" x1="111.501" y1="38.2476" x2="146.606" y2="38.2476" gradientUnits="userSpaceOnUse">
<stop stop-color="#7D141D"/>
<stop offset="1" stop-color="#FF1E27"/>
</linearGradient>
<linearGradient id="paint2_linear_59_2" x1="141.246" y1="8.25" x2="176.351" y2="8.25" gradientUnits="userSpaceOnUse">
<stop stop-color="#7D141D"/>
<stop offset="1" stop-color="#FF1E27"/>
</linearGradient>
<linearGradient id="paint3_linear_59_2" x1="170.994" y1="38.2476" x2="206.097" y2="38.2476" gradientUnits="userSpaceOnUse">
<stop stop-color="#7D141D"/>
<stop offset="1" stop-color="#FF1E27"/>
</linearGradient>
<linearGradient id="paint4_linear_59_2" x1="149.922" y1="46.9224" x2="167.676" y2="46.9224" gradientUnits="userSpaceOnUse">
<stop stop-color="#7D141D"/>
<stop offset="1" stop-color="#FF1E27"/>
</linearGradient>
<linearGradient id="paint5_linear_59_2" x1="103" y1="0" x2="238.219" y2="0" gradientUnits="userSpaceOnUse">
<stop stop-color="#7D141D"/>
<stop offset="1" stop-color="#FF1E27"/>
</linearGradient>
<clipPath id="clip0_59_2">
<rect width="340" height="205.435" fill="white"/>
</clipPath>
</defs>
</svg>
